<mxfile host="65bd71144e">
    <diagram id="8GFeSSwSZN4FBcvACYuL" name="Page-1">
        <mxGraphModel dx="1194" dy="826" grid="1" gridSize="10" guides="1" tooltips="1" connect="1" arrows="1" fold="1" page="1" pageScale="1" pageWidth="850" pageHeight="1100" math="0" shadow="0">
            <root>
                <mxCell id="0"/>
                <mxCell id="1" parent="0"/>
                <mxCell id="5" style="edgeStyle=orthogonalEdgeStyle;html=1;entryX=1;entryY=0.5;entryDx=0;entryDy=0;curved=1;fillColor=#dae8fc;strokeColor=#6c8ebf;endArrow=none;endFill=0;fontStyle=1" edge="1" parent="1" source="2" target="4">
                    <mxGeometry relative="1" as="geometry"/>
                </mxCell>
                <mxCell id="7" style="edgeStyle=orthogonalEdgeStyle;html=1;entryX=0;entryY=0.5;entryDx=0;entryDy=0;fillColor=#d5e8d4;strokeColor=#82b366;endArrow=none;endFill=0;curved=1;fontStyle=1" edge="1" parent="1" source="2" target="6">
                    <mxGeometry relative="1" as="geometry"/>
                </mxCell>
                <mxCell id="9" style="edgeStyle=orthogonalEdgeStyle;html=1;entryX=1;entryY=0.5;entryDx=0;entryDy=0;fillColor=#e1d5e7;strokeColor=#9673a6;endArrow=none;endFill=0;curved=1;fontStyle=1" edge="1" parent="1" source="2" target="8">
                    <mxGeometry relative="1" as="geometry"/>
                </mxCell>
                <mxCell id="11" style="edgeStyle=orthogonalEdgeStyle;html=1;entryX=0;entryY=0.5;entryDx=0;entryDy=0;curved=1;endArrow=none;endFill=0;fillColor=#ffe6cc;strokeColor=#d79b00;" edge="1" parent="1" source="2" target="10">
                    <mxGeometry relative="1" as="geometry"/>
                </mxCell>
                <mxCell id="2" value="&lt;b&gt;Comparison Sorting Algorithms&lt;/b&gt;&lt;div&gt;Sorting algorithms that determine the order of elements by comparing them to one another.&lt;b&gt;&lt;/b&gt;&lt;/div&gt;" style="ellipse;whiteSpace=wrap;html=1;aspect=fixed;fillColor=#fff2cc;strokeColor=#d6b656;" vertex="1" parent="1">
                    <mxGeometry x="260" y="290" width="280" height="280" as="geometry"/>
                </mxCell>
                <mxCell id="4" value="&lt;b&gt;Algorithms&lt;/b&gt;&lt;div&gt;&lt;b&gt;&lt;br&gt;&lt;/b&gt;&lt;div style=&quot;text-align: left;&quot;&gt;- Bubble sort&lt;/div&gt;&lt;div style=&quot;text-align: left;&quot;&gt;- Insertion sort&lt;/div&gt;&lt;div style=&quot;text-align: left;&quot;&gt;- Selection sort&lt;/div&gt;&lt;div style=&quot;text-align: left;&quot;&gt;- Quick sort&lt;/div&gt;&lt;div style=&quot;text-align: left;&quot;&gt;- Merge sort&lt;/div&gt;&lt;/div&gt;" style="rounded=1;whiteSpace=wrap;html=1;fillColor=#dae8fc;strokeColor=#6c8ebf;" vertex="1" parent="1">
                    <mxGeometry x="30" y="170" width="120" height="120" as="geometry"/>
                </mxCell>
                <mxCell id="6" value="&lt;b&gt;Time Complexity&lt;/b&gt;&lt;div&gt;&lt;br&gt;&lt;/div&gt;&lt;div&gt;&lt;div style=&quot;color: rgb(63, 63, 63); text-align: left;&quot;&gt;- Bubble sort&lt;/div&gt;&lt;div style=&quot;color: rgb(63, 63, 63); text-align: left;&quot;&gt;&lt;span style=&quot;white-space: pre;&quot;&gt;&#x9;&lt;/span&gt;- best: O(n)&lt;br&gt;&lt;/div&gt;&lt;div style=&quot;color: rgb(63, 63, 63); text-align: left;&quot;&gt;&lt;span style=&quot;white-space: pre;&quot;&gt;&#x9;&lt;/span&gt;- average: O(&lt;span style=&quot;background-color: transparent; text-align: center;&quot;&gt;n²&lt;/span&gt;&lt;span style=&quot;background-color: transparent;&quot;&gt;)&lt;/span&gt;&lt;/div&gt;&lt;div style=&quot;color: rgb(63, 63, 63); text-align: left;&quot;&gt;&lt;span style=&quot;white-space: pre;&quot;&gt;&#x9;&lt;/span&gt;- worst:&amp;nbsp;&lt;span style=&quot;color: rgb(63, 63, 63); background-color: transparent;&quot;&gt;O(&lt;/span&gt;&lt;span style=&quot;color: rgb(63, 63, 63); background-color: transparent; text-align: center;&quot;&gt;n²&lt;/span&gt;&lt;span style=&quot;color: rgb(63, 63, 63); background-color: transparent;&quot;&gt;)&lt;/span&gt;&lt;br&gt;&lt;/div&gt;&lt;div style=&quot;color: rgb(63, 63, 63); text-align: left;&quot;&gt;- Insertion sort&lt;/div&gt;&lt;div style=&quot;color: rgb(63, 63, 63); text-align: left;&quot;&gt;&lt;div style=&quot;color: rgb(63, 63, 63);&quot;&gt;&lt;span style=&quot;white-space: pre;&quot;&gt;&#x9;&lt;/span&gt;- best: O(n)&lt;br&gt;&lt;/div&gt;&lt;div style=&quot;color: rgb(63, 63, 63);&quot;&gt;&lt;span style=&quot;white-space: pre;&quot;&gt;&#x9;&lt;/span&gt;- average: O(&lt;span style=&quot;background-color: transparent; text-align: center;&quot;&gt;n²&lt;/span&gt;&lt;span style=&quot;background-color: transparent;&quot;&gt;)&lt;/span&gt;&lt;/div&gt;&lt;div style=&quot;color: rgb(63, 63, 63);&quot;&gt;&lt;span style=&quot;white-space: pre;&quot;&gt;&#x9;&lt;/span&gt;- worst:&amp;nbsp;&lt;span style=&quot;color: rgb(63, 63, 63); background-color: transparent;&quot;&gt;O(&lt;/span&gt;&lt;span style=&quot;color: rgb(63, 63, 63); background-color: transparent; text-align: center;&quot;&gt;n²&lt;/span&gt;&lt;span style=&quot;color: rgb(63, 63, 63); background-color: transparent;&quot;&gt;)&lt;/span&gt;&lt;br&gt;&lt;/div&gt;&lt;div style=&quot;color: rgb(63, 63, 63);&quot;&gt;&lt;span style=&quot;background-color: transparent;&quot;&gt;- Selection sort&lt;/span&gt;&lt;/div&gt;&lt;/div&gt;&lt;div style=&quot;color: rgb(63, 63, 63); text-align: left;&quot;&gt;&lt;div style=&quot;color: rgb(63, 63, 63);&quot;&gt;&lt;span style=&quot;white-space: pre;&quot;&gt;&#x9;&lt;/span&gt;- best: O(n)&lt;br&gt;&lt;/div&gt;&lt;div style=&quot;color: rgb(63, 63, 63);&quot;&gt;&lt;span style=&quot;white-space: pre;&quot;&gt;&#x9;&lt;/span&gt;- average: O(&lt;span style=&quot;background-color: transparent; text-align: center;&quot;&gt;n²&lt;/span&gt;&lt;span style=&quot;background-color: transparent;&quot;&gt;)&lt;/span&gt;&lt;/div&gt;&lt;div style=&quot;color: rgb(63, 63, 63);&quot;&gt;&lt;span style=&quot;white-space: pre;&quot;&gt;&#x9;&lt;/span&gt;- worst:&amp;nbsp;&lt;span style=&quot;color: rgb(63, 63, 63); background-color: transparent;&quot;&gt;O(&lt;/span&gt;&lt;span style=&quot;color: rgb(63, 63, 63); background-color: transparent; text-align: center;&quot;&gt;n²&lt;/span&gt;&lt;span style=&quot;color: rgb(63, 63, 63); background-color: transparent;&quot;&gt;)&lt;/span&gt;&lt;br&gt;&lt;/div&gt;&lt;div style=&quot;color: rgb(63, 63, 63);&quot;&gt;&lt;span style=&quot;background-color: transparent;&quot;&gt;- Quick sort&lt;/span&gt;&lt;/div&gt;&lt;/div&gt;&lt;div style=&quot;color: rgb(63, 63, 63); text-align: left;&quot;&gt;&lt;div style=&quot;color: rgb(63, 63, 63);&quot;&gt;&lt;span style=&quot;white-space: pre;&quot;&gt;&#x9;&lt;/span&gt;- best:&amp;nbsp;&lt;span style=&quot;color: rgb(63, 63, 63); background-color: transparent;&quot;&gt;O(&lt;/span&gt;&lt;span style=&quot;color: rgb(63, 63, 63); background-color: transparent; text-align: center;&quot;&gt;n log n&lt;/span&gt;&lt;span style=&quot;color: rgb(63, 63, 63); background-color: transparent;&quot;&gt;)&lt;/span&gt;&lt;br&gt;&lt;/div&gt;&lt;div style=&quot;color: rgb(63, 63, 63);&quot;&gt;&lt;span style=&quot;white-space: pre;&quot;&gt;&#x9;&lt;/span&gt;- average: O(&lt;span style=&quot;background-color: transparent; text-align: center;&quot;&gt;n log n&lt;/span&gt;&lt;span style=&quot;background-color: transparent;&quot;&gt;)&lt;/span&gt;&lt;/div&gt;&lt;div style=&quot;color: rgb(63, 63, 63);&quot;&gt;&lt;span style=&quot;white-space: pre;&quot;&gt;&#x9;&lt;/span&gt;- worst:&amp;nbsp;&lt;span style=&quot;color: rgb(63, 63, 63); background-color: transparent;&quot;&gt;O(&lt;/span&gt;&lt;span style=&quot;color: rgb(63, 63, 63); background-color: transparent; text-align: center;&quot;&gt;n²&lt;/span&gt;&lt;span style=&quot;color: rgb(63, 63, 63); background-color: transparent;&quot;&gt;)&lt;/span&gt;&lt;br&gt;&lt;/div&gt;&lt;div style=&quot;color: rgb(63, 63, 63);&quot;&gt;&lt;span style=&quot;background-color: transparent;&quot;&gt;- Merge sort&lt;/span&gt;&lt;/div&gt;&lt;/div&gt;&lt;/div&gt;&lt;div&gt;&lt;div style=&quot;color: rgb(63, 63, 63); text-align: left;&quot;&gt;&lt;span style=&quot;white-space: pre;&quot;&gt;&#x9;&lt;/span&gt;- best:&amp;nbsp;&lt;span style=&quot;color: rgb(63, 63, 63); background-color: transparent;&quot;&gt;O(&lt;/span&gt;&lt;span style=&quot;color: rgb(63, 63, 63); background-color: transparent; text-align: center;&quot;&gt;n log n&lt;/span&gt;&lt;span style=&quot;color: rgb(63, 63, 63); background-color: transparent;&quot;&gt;)&lt;/span&gt;&lt;br&gt;&lt;/div&gt;&lt;div style=&quot;color: rgb(63, 63, 63); text-align: left;&quot;&gt;&lt;span style=&quot;white-space: pre;&quot;&gt;&#x9;&lt;/span&gt;- average: O(&lt;span style=&quot;background-color: transparent; text-align: center;&quot;&gt;n log n&lt;/span&gt;&lt;span style=&quot;background-color: transparent;&quot;&gt;)&lt;/span&gt;&lt;/div&gt;&lt;div style=&quot;color: rgb(63, 63, 63); text-align: left;&quot;&gt;&lt;span style=&quot;white-space: pre;&quot;&gt;&#x9;&lt;/span&gt;- worst:&amp;nbsp;&lt;span style=&quot;color: rgb(63, 63, 63); background-color: transparent;&quot;&gt;O(&lt;/span&gt;&lt;span style=&quot;color: rgb(63, 63, 63); background-color: transparent; text-align: center;&quot;&gt;n log n&lt;/span&gt;&lt;span style=&quot;color: rgb(63, 63, 63); background-color: transparent;&quot;&gt;)&lt;/span&gt;&lt;br&gt;&lt;/div&gt;&lt;/div&gt;&lt;div&gt;&lt;span style=&quot;color: rgb(63, 63, 63); background-color: transparent;&quot;&gt;&lt;br&gt;&lt;/span&gt;&lt;/div&gt;" style="rounded=1;whiteSpace=wrap;html=1;fillColor=#d5e8d4;strokeColor=#82b366;" vertex="1" parent="1">
                    <mxGeometry x="670" y="45" width="220" height="370" as="geometry"/>
                </mxCell>
                <mxCell id="8" value="Memory Usage&lt;div&gt;&lt;br&gt;&lt;/div&gt;&lt;div style=&quot;text-align: left;&quot;&gt;&lt;b&gt;In-place sorting&lt;/b&gt;&lt;/div&gt;&lt;div&gt;&lt;div style=&quot;text-align: left; color: rgb(63, 63, 63);&quot;&gt;- Bubble sort&lt;/div&gt;&lt;div style=&quot;color: rgb(63, 63, 63); text-align: left;&quot;&gt;- Insertion sort&lt;/div&gt;&lt;div style=&quot;color: rgb(63, 63, 63); text-align: left;&quot;&gt;- Selection sort&lt;/div&gt;&lt;div style=&quot;color: rgb(63, 63, 63); text-align: left;&quot;&gt;- Quick sort&lt;/div&gt;&lt;/div&gt;&lt;div&gt;&lt;br&gt;&lt;/div&gt;&lt;div style=&quot;text-align: left;&quot;&gt;&lt;b&gt;Not In-place&lt;/b&gt;&lt;/div&gt;&lt;div style=&quot;text-align: left;&quot;&gt;- Merge sort&amp;nbsp;&lt;/div&gt;" style="rounded=1;whiteSpace=wrap;html=1;fillColor=#e1d5e7;strokeColor=#9673a6;" vertex="1" parent="1">
                    <mxGeometry x="60" y="580" width="120" height="190" as="geometry"/>
                </mxCell>
                <mxCell id="10" value="&lt;b&gt;Working mechanisms&lt;/b&gt;&lt;div&gt;&lt;b&gt;&lt;br&gt;&lt;/b&gt;&lt;div&gt;&lt;div style=&quot;color: rgb(63, 63, 63); text-align: left;&quot;&gt;- Bubble sort:&amp;nbsp;&lt;span style=&quot;background-color: transparent; text-align: center;&quot;&gt;Repeatedly swaps adjacent elements if they are in the wrong order&lt;/span&gt;&lt;/div&gt;&lt;div style=&quot;color: rgb(63, 63, 63); text-align: left;&quot;&gt;&lt;span style=&quot;background-color: transparent; text-align: center;&quot;&gt;&lt;br&gt;&lt;/span&gt;&lt;/div&gt;&lt;div style=&quot;color: rgb(63, 63, 63); text-align: left;&quot;&gt;- Insertion sort:&amp;nbsp;&lt;span style=&quot;background-color: transparent; text-align: center;&quot;&gt;Builds sorted array by inserting elements into their correct position&lt;/span&gt;&lt;/div&gt;&lt;div style=&quot;color: rgb(63, 63, 63); text-align: left;&quot;&gt;&lt;span style=&quot;background-color: transparent; text-align: center;&quot;&gt;&lt;br&gt;&lt;/span&gt;&lt;/div&gt;&lt;div style=&quot;color: rgb(63, 63, 63); text-align: left;&quot;&gt;- Selection sort:&amp;nbsp;&lt;span style=&quot;background-color: transparent; text-align: center;&quot;&gt;Repeatedly selects the smallest (or largest) element and places it at the beginning&lt;/span&gt;&lt;/div&gt;&lt;div style=&quot;color: rgb(63, 63, 63); text-align: left;&quot;&gt;&lt;span style=&quot;background-color: transparent; text-align: center;&quot;&gt;&lt;br&gt;&lt;/span&gt;&lt;/div&gt;&lt;div style=&quot;color: rgb(63, 63, 63); text-align: left;&quot;&gt;- Quick sort:&amp;nbsp;&lt;span style=&quot;background-color: transparent; text-align: center;&quot;&gt;Picks a pivot, partitions the array, and recursively sorts&lt;/span&gt;&lt;/div&gt;&lt;div style=&quot;color: rgb(63, 63, 63); text-align: left;&quot;&gt;&lt;span style=&quot;background-color: transparent; text-align: center;&quot;&gt;&lt;br&gt;&lt;/span&gt;&lt;/div&gt;&lt;div style=&quot;color: rgb(63, 63, 63); text-align: left;&quot;&gt;- Merge sort:&amp;nbsp;&lt;span style=&quot;background-color: transparent; text-align: center;&quot;&gt;Divides the array into halves, sorts them, and merges&lt;/span&gt;&lt;/div&gt;&lt;/div&gt;&lt;/div&gt;" style="rounded=1;whiteSpace=wrap;html=1;fillColor=#ffe6cc;strokeColor=#d79b00;" vertex="1" parent="1">
                    <mxGeometry x="670" y="530" width="300" height="300" as="geometry"/>
                </mxCell>
            </root>
        </mxGraphModel>
    </diagram>
</mxfile>